PathFileType	4	(X/Y/Z)	 s01c0201.trc
DataRate	CameraRate	NumFrames	NumMarkers	Units	OrigDataRate	OrigDataStartFrame	OrigNumFrames
200	200	4	48	mm	200	1251	2000
Frame#	Time	racr			lacr			c7			jug			rlel			rdr			llel			ldr			s2			lic			ric			lasi			rasi			rpsi			lpsi			rgt			lgt			rth1			rth2			rth3			rth4			rlfc			rsh1			rsh2			rsh3			rsh4			rlmal			rmmal			rcal			rtoe			rmt5			lth1			lth2			lth4			lth3			llfc			lsh1			lsh2			lsh3			lsh4			llmal			lmmal			lcal			ltoe			lmt5			SBIKE			LBIKE			RBIKE			
		X1	Y1	Z1	X2	Y2	Z2	X3	Y3	Z3	X4	Y4	Z4	X5	Y5	Z5	X6	Y6	Z6	X7	Y7	Z7	X8	Y8	Z8	X9	Y9	Z9	X10	Y10	Z10	X11	Y11	Z11	X12	Y12	Z12	X13	Y13	Z13	X14	Y14	Z14	X15	Y15	Z15	X16	Y16	Z16	X17	Y17	Z17	X18	Y18	Z18	X19	Y19	Z19	X20	Y20	Z20	X21	Y21	Z21	X22	Y22	Z22	X23	Y23	Z23	X24	Y24	Z24	X25	Y25	Z25	X26	Y26	Z26	X27	Y27	Z27	X28	Y28	Z28	X29	Y29	Z29	X30	Y30	Z30	X31	Y31	Z31	X32	Y32	Z32	X33	Y33	Z33	X34	Y34	Z34	X35	Y35	Z35	X36	Y36	Z36	X37	Y37	Z37	X38	Y38	Z38	X39	Y39	Z39	X40	Y40	Z40	X41	Y41	Z41	X42	Y42	Z42	X43	Y43	Z43	X44	Y44	Z44	X45	Y45	Z45	X46	Y46	Z46	X47	Y47	Z47	X48	Y48	Z48	
1251	6.2550	524.836552	1251.986587	-57.889102	554.373269	1231.757659	-423.776009	519.440264	1357.456288	-247.205532	504.649766	1190.856437	-241.234560	462.529195	985.495279	50.265421	655.276643	872.786492	-51.940660	474.369066	984.187959	-563.376083	659.292474	883.430105	-442.804546	-9.118532	1148.326761	-260.734811	160.364876	1154.343583	-438.273902	137.264550	1156.587672	-98.910189	165.860468	1107.885504	-407.569296	170.269369	1109.797436	-126.280454	18.051772	1189.882769	-209.933585	16.186820	1191.331129	-314.944068	93.502206	1036.524553	-75.542472	121.570369	1037.038610	-455.195223	169.632101	924.819641	-56.567419	220.897029	859.673717	-61.624802	271.345764	785.491956	-73.069010	266.085903	891.726124	-73.503975	316.026561	678.686895	-90.337646	281.248947	567.510755	-55.735419	270.879090	483.298478	-59.283436	251.761727	396.874788	-68.131867	319.087959	476.339003	-95.339640	215.290483	276.620627	-89.004806	267.812452	291.752641	-163.844626	171.177501	262.356076	-137.641898	429.923776	181.062876	-132.801096	323.705918	170.693422	-59.675084	222.584396	969.469927	-447.798770	311.140198	958.510899	-448.041576	319.261622	1011.235796	-436.400622	393.135067	937.919887	-429.935669	478.245478	866.721909	-395.969156	386.210052	811.937981	-430.400220	320.951198	755.689540	-424.198910	254.048217	703.168587	-413.161698	356.885588	717.762476	-392.009437	156.690991	626.025658	-401.096257	181.749261	615.724420	-318.030162	97.758324	636.671324	-356.803759	270.312861	417.616623	-370.736232	184.543063	484.585079	-434.169021	-222.993197	893.877228	-249.364755	-12.108729	84.542513	-453.729067	-20.288844	80.764545	-53.721574	
1252	6.2600	526.696145	1252.158093	-60.199652	553.292242	1232.163957	-426.085053	519.712060	1357.669093	-249.431214	505.167024	1191.157091	-243.577229	462.992481	986.880912	50.087381	655.317126	872.990985	-51.954035	473.531177	983.868576	-563.777078	658.858930	883.731112	-442.868491	-9.315506	1148.167581	-259.335374	159.798365	1155.171164	-438.195418	138.341360	1156.468547	-98.765102	165.451393	1108.832222	-407.307096	170.220007	1109.672192	-125.799922	18.108151	1189.967579	-208.663868	16.050180	1191.475443	-313.570048	92.557607	1035.933967	-74.787513	121.398744	1038.070551	-454.779234	166.522422	923.944257	-54.877640	216.492752	857.852227	-59.587501	265.697390	782.770249	-70.594474	261.951971	888.982832	-70.808309	309.115434	675.452681	-87.509153	273.595800	564.613890	-53.253567	263.108222	480.399078	-56.877661	243.900127	394.037431	-65.950340	311.812911	473.313796	-92.214310	208.201942	273.450132	-87.728344	261.527255	288.895252	-162.596719	164.366789	260.783624	-136.034322	421.228373	173.897065	-133.272142	315.330523	165.345983	-59.447756	222.823322	972.324505	-447.532512	311.629401	963.393011	-448.366373	318.662400	1016.266158	-437.085549	394.174613	944.623670	-430.632296	483.101374	877.497625	-396.340162	390.520609	821.848558	-431.549723	325.877126	764.198200	-424.533349	259.694363	710.715386	-413.339039	362.428592	726.459157	-392.980294	163.295242	631.083468	-400.999530	188.782773	621.571529	-317.923488	104.003835	640.825432	-356.683820	280.218274	424.695305	-370.461952	193.486717	490.219013	-433.865233	-223.060465	893.900665	-249.262702	-12.115208	84.538632	-453.810556	-20.298694	80.780598	-53.708164	
1253	6.2650	528.589674	1252.239044	-62.581921	552.141917	1232.486272	-428.517398	520.050542	1357.807071	-251.698270	505.510285	1191.393707	-245.918675	463.577174	988.153017	49.815069	655.412770	873.199162	-52.077733	472.629327	983.473306	-564.198413	658.774259	884.340185	-442.818022	-9.460464	1148.409976	-258.099848	159.217866	1156.233419	-438.054338	139.325996	1156.486903	-98.665575	165.017751	1109.911638	-407.039964	170.123916	1109.673416	-125.345062	18.088937	1190.113542	-207.445164	15.936649	1191.735250	-312.271640	91.570438	1035.510455	-74.078763	120.984131	1039.464900	-454.367713	163.517162	923.297716	-53.066122	212.340282	856.420938	-57.535085	260.385904	780.594360	-68.083446	258.508251	886.763692	-68.641733	302.530835	672.943482	-84.652793	266.205045	562.229454	-50.787273	255.453105	478.118359	-54.568491	236.156205	391.735050	-63.963407	304.769679	470.858308	-89.034501	201.598240	271.479334	-86.047697	255.179622	286.677257	-161.348380	157.536321	260.051399	-134.231071	412.247491	167.272920	-133.788471	306.626519	160.818961	-59.231874	223.089686	975.210801	-447.213595	312.060933	968.022852	-448.675560	318.109876	1021.159559	-437.563064	395.056006	951.109104	-431.211175	486.014735	887.207298	-397.254586	394.658050	830.424673	-431.592676	330.652053	772.305722	-424.967592	265.216631	717.779769	-413.504378	367.877409	734.695728	-393.849915	169.815157	635.448123	-400.920374	195.593255	626.670235	-317.870654	110.228859	644.290787	-356.566437	290.431162	431.441922	-370.314836	202.509503	495.324522	-433.649259	-223.099943	893.936787	-249.201521	-12.127793	84.580207	-453.792221	-20.312629	80.797853	-53.710100	
1254	6.2700	530.484385	1252.117401	-65.034508	550.979471	1232.839343	-430.962068	520.427853	1357.851556	-253.924081	505.888384	1191.594059	-248.070656	464.240453	989.247834	49.544435	655.560298	873.326372	-52.249729	471.699580	983.079786	-564.626840	657.978289	884.280407	-443.181190	-9.762036	1148.760877	-257.323404	158.577154	1157.377173	-437.923593	140.148343	1156.635269	-98.657206	164.561332	1111.108181	-406.760817	169.961421	1109.760758	-124.827294	18.069830	1190.398260	-206.327256	15.831225	1192.128976	-311.059658	90.496075	1035.310696	-73.340019	120.690873	1041.045638	-454.083824	160.665556	922.977668	-51.174913	208.461700	855.353707	-55.433036	255.445983	778.741490	-65.019099	255.351179	885.177482	-66.312950	296.527286	671.070212	-81.774104	259.232310	560.385910	-48.340411	248.157219	476.274536	-52.384518	228.713100	390.000387	-62.007103	298.017909	468.769398	-85.977773	194.611478	270.215184	-84.835259	248.796160	285.081758	-160.113642	150.721198	260.335312	-131.956764	403.062152	161.398118	-134.189350	297.784619	156.852810	-59.067839	223.325423	978.151693	-446.956603	312.454665	972.603946	-448.972453	317.579029	1025.973782	-438.236120	395.816160	957.287716	-431.699371	489.762297	897.062422	-397.655765	398.244256	838.982205	-432.039323	335.135901	779.893487	-425.603349	270.602518	724.484653	-413.788936	373.150435	742.631336	-394.944831	176.244158	639.080615	-400.862840	202.435522	631.246182	-317.873579	116.622717	646.916386	-356.190744	300.812105	437.615947	-370.019123	211.684788	499.773618	-433.532952	-223.142864	893.966350	-249.137078	-12.128841	84.622411	-453.793663	-20.323201	80.803742	-53.700430	
